<svg width="100" height="100" viewBox="0 0 100 100" fill="none" xmlns="http://www.w3.org/2000/svg">
<g clip-path="url(#clip0_512_28798)">
<path fill-rule="evenodd" clip-rule="evenodd" d="M91.4614 47.4758C91.4386 47.3146 91.4143 47.1547 91.3886 46.9972C91.2949 46.4228 91.1754 45.8314 91.0267 45.2874C90.8929 44.7975 90.6803 44.1336 90.328 43.5465C89.6121 42.3533 88.491 41.5266 87.6095 41.0124C86.689 40.4755 85.6362 40.0519 84.6856 39.8618C84.2169 39.768 83.1426 39.6531 82.0004 39.5396C80.7623 39.4165 79.1919 39.2724 77.5572 39.129C74.2937 38.8428 70.7245 38.5547 68.9775 38.4383C67.9202 38.3678 67.2692 38.156 66.9316 38.0027C66.8367 37.9596 66.7696 37.9226 66.7268 37.8966C65.9039 36.9107 63.7892 34.5257 61.6502 32.5811C60.1088 31.1798 58.7206 30.3879 57.0803 29.9562C56.1197 29.7034 54.971 29.5741 53.8912 29.4526C53.4837 29.4068 53.086 29.362 52.712 29.3121C51.6331 29.1683 49.0404 29.0991 46.0227 29.0574C42.8975 29.0143 39.0444 29 35.2528 29C31.4589 29 27.7166 29.0143 24.8097 29.0286C23.3828 29.0356 22.1638 29.0426 21.2379 29.0479C20.2681 29.0535 19.6197 29.0572 19.3905 29.0572H19.3698C18.4673 29.0572 17.2328 29.0572 16.1895 29.087C15.6707 29.1018 15.142 29.1254 14.7026 29.167C14.4911 29.187 14.2261 29.2178 13.9646 29.2715C13.837 29.2976 13.6363 29.3441 13.4136 29.4246C13.2725 29.4755 12.7332 29.6703 12.239 30.1645C11.6805 30.7229 11.3415 31.3894 11.1381 31.8501C10.912 32.3621 10.7258 32.9213 10.5699 33.4651C10.2575 34.5548 9.99843 35.8252 9.78431 37.0401C9.56789 38.2681 9.38512 39.5113 9.23569 40.5629C9.1981 40.8274 9.1632 41.0753 9.13072 41.3061C9.02907 42.0283 8.95104 42.5827 8.888 42.952C8.85953 43.1188 8.84521 43.2876 8.84521 43.4568V46.77C7.64977 47.165 6.78711 48.2913 6.78711 49.6191V55.3115C6.78711 56.8075 7.45305 57.9785 8.31126 58.7394C8.96833 59.322 9.71164 59.6503 10.3495 59.8061L14.8646 61.3593C15.4801 66.4691 19.8309 70.4292 25.1067 70.4292C29.3873 70.4292 33.0589 67.8222 34.6206 64.1094H66.8091C68.3708 67.8222 72.0424 70.4292 76.323 70.4292C81.2935 70.4292 85.443 66.9142 86.4213 62.2343C87.3925 61.9752 88.4427 61.522 89.3256 61.0806C90.469 60.5089 91.7197 59.7609 92.6483 58.9871C93.8345 57.9986 94.1195 56.5423 94.2203 55.8857C94.3516 55.0305 94.3523 54.1195 94.3055 53.3282C94.2577 52.5183 94.1527 51.7131 94.0212 51.0282C93.9158 50.4794 93.7244 49.6138 93.3614 48.9482C92.9558 48.2045 92.2617 47.6777 91.4614 47.4758ZM21.3208 35.0475C20.3156 35.0533 19.6331 35.0572 19.3905 35.0572C18.4656 35.0572 17.3103 35.0574 16.3609 35.0845L16.3473 35.0849L16.3375 35.1188C16.1105 35.9106 15.894 36.9424 15.6932 38.0815C15.4948 39.2076 15.3233 40.3702 15.176 41.407C15.1446 41.6283 15.1137 41.8478 15.0836 42.0619C14.9964 42.6815 14.9154 43.2578 14.8452 43.7007V49.6186C14.8452 50.9465 13.9826 52.0728 12.7871 52.4678V54.2984L15.9359 55.3824C17.6509 52.0641 21.1139 49.7959 25.1067 49.7959C30.119 49.7959 34.2965 53.3704 35.229 58.1094H66.2007C67.1332 53.3704 71.3107 49.7959 76.323 49.7959C80.5946 49.7959 84.2598 52.3919 85.827 56.0923C86.0695 55.989 86.3435 55.8634 86.6423 55.714C87.282 55.3942 87.8691 55.0487 88.316 54.7435C88.3379 54.4715 88.3412 54.1097 88.316 53.6819C88.3096 53.5739 88.3017 53.466 88.2924 53.3589C86.8225 53.1653 85.6879 51.9075 85.6879 50.3848C85.6879 50.3712 85.688 50.3577 85.6882 50.3441C85.6848 49.7361 85.6077 48.8268 85.4668 47.9629C85.3959 47.528 85.3166 47.153 85.2389 46.8687C85.2057 46.7475 85.1792 46.6662 85.1624 46.6179C85.1436 46.5986 85.1167 46.5725 85.0798 46.5403C84.9636 46.4386 84.7971 46.3181 84.5863 46.1951C84.141 45.9353 83.7133 45.7878 83.5169 45.7469C83.5169 45.7469 83.4754 45.7398 83.3711 45.7257C83.2557 45.71 83.1014 45.6909 82.9073 45.6685C82.5199 45.6238 82.0106 45.5702 81.4068 45.5101C80.2012 45.3903 78.6564 45.2485 77.0329 45.1061C73.78 44.8208 70.2611 44.5372 68.5784 44.425C66.892 44.3126 65.5233 43.9528 64.451 43.4659C63.5358 43.0503 62.6502 42.4546 62.0652 41.6753C61.3088 40.7757 59.4355 38.6765 57.6141 37.0207C56.6404 36.1355 56.0851 35.8986 55.5533 35.7586C55.025 35.6196 54.5465 35.5669 53.7631 35.4807C53.2873 35.4283 52.6991 35.3635 51.919 35.2595C51.283 35.1747 49.1313 35.1009 45.9399 35.0569C42.8559 35.0143 39.0351 35 35.2528 35C31.4728 35 27.7413 35.0143 24.8392 35.0285C23.4528 35.0354 22.2491 35.0422 21.3208 35.0475ZM66.6684 37.8583C66.659 37.8512 66.6606 37.8516 66.6709 37.8602L66.6684 37.8583ZM20.79 60.1126C20.79 57.7285 22.7227 55.7959 25.1067 55.7959C27.4907 55.7959 29.4234 57.7285 29.4234 60.1126C29.4234 62.4966 27.4907 64.4292 25.1067 64.4292C22.7227 64.4292 20.79 62.4966 20.79 60.1126ZM72.0063 60.1126C72.0063 57.7285 73.939 55.7959 76.323 55.7959C78.707 55.7959 80.6397 57.7285 80.6397 60.1126C80.6397 62.4966 78.707 64.4292 76.323 64.4292C73.939 64.4292 72.0063 62.4966 72.0063 60.1126Z" fill="#FF9549"/>
</g>
<defs>
<clipPath id="clip0_512_28798">
<rect width="89" height="42" fill="white" transform="translate(6 29)"/>
</clipPath>
</defs>
</svg>
