<svg width="100" height="100" viewBox="0 0 100 100" fill="none" xmlns="http://www.w3.org/2000/svg">
<mask id="mask0_512_28790" style="mask-type:luminance" maskUnits="userSpaceOnUse" x="17" y="17" width="66" height="66">
<path d="M69 17H31C23.268 17 17 23.268 17 31V69C17 76.732 23.268 83 31 83H69C76.732 83 83 76.732 83 69V31C83 23.268 76.732 17 69 17Z" fill="white"/>
</mask>
<g mask="url(#mask0_512_28790)">
<path d="M37.625 50L45.875 58.25L62.375 41.75M77.5 50C77.5 65.1878 65.1878 77.5 50 77.5C34.8121 77.5 22.5 65.1878 22.5 50C22.5 34.8122 34.8121 22.5 50 22.5C65.1878 22.5 77.5 34.8122 77.5 50Z" stroke="#FF9549" stroke-width="4" stroke-linecap="round" stroke-linejoin="round"/>
</g>
</svg>
